<svg version="1.1" id="Layer_1" xmlns="http://www.w3.org/2000/svg" xmlns:xlink="http://www.w3.org/1999/xlink" class="w-40 h-10" width="100%" viewBox="0 0 982 100" enable-background="new 0 0 982 100" xml:space="preserve"><path fill="none" opacity="1" stroke="none" d=" M840.000000,101.000000  C560.064575,101.000000 280.629120,101.000000 1.096833,101.000000  C1.096833,67.739174 1.096833,34.477966 1.096833,1.108382  C328.333313,1.108382 655.666626,1.108382 982.983398,1.108382  C982.983398,34.370876 982.983398,67.685440 982.983398,101.000000  C935.477844,101.000000 887.988953,101.000000 840.000000,101.000000  M696.418518,79.795502  C698.744385,79.863792 701.092163,79.755013 703.391479,80.038528  C707.710754,80.571121 709.178650,79.020966 709.100952,74.520676  C708.836304,59.199043 708.999878,43.870018 708.999878,28.543818  C708.999878,26.112732 708.999817,23.681648 708.999817,20.999943  C718.751282,20.999943 727.891541,21.052389 737.030029,20.948572  C738.562073,20.931166 740.637390,20.730436 741.507568,19.759439  C743.806458,17.194344 745.581421,14.159754 747.782104,11.000241  C721.592224,11.000241 695.939148,10.981100 670.286438,11.054170  C668.938660,11.058009 667.135132,11.439161 666.334290,12.344177  C664.123901,14.842332 662.333069,17.711752 659.936829,21.045826  C672.368469,21.045826 684.125793,21.045826 695.985474,21.972023  C696.048218,40.972225 696.110962,59.972431 696.418518,79.795502  M489.288757,61.784401  C484.412170,57.242054 479.467804,52.770004 474.672455,48.143456  C462.868835,36.755344 451.136993,25.292862 439.363037,13.873899  C438.659332,13.191381 437.925415,12.295238 437.057709,12.071331  C434.182922,11.329514 430.529938,9.544425 428.523285,10.636374  C426.508484,11.732783 425.189819,15.782623 425.148499,18.561663  C424.866058,37.556152 424.994965,56.556847 425.011353,75.555527  C425.012604,76.986786 425.169678,78.417923 425.240997,79.623993  C429.081146,79.623993 432.478088,79.623993 436.194336,79.623993  C436.194336,62.366734 436.194336,45.484337 436.194336,27.987654  C437.881134,29.133095 439.192078,29.781244 440.201691,30.745087  C456.393494,46.202744 472.666626,61.579197 488.608185,77.291771  C491.801880,80.439606 495.485718,80.969055 498.402161,79.477448  C500.419983,78.445442 501.804077,74.336197 501.846832,71.576843  C502.138489,52.749325 502.004669,33.915134 501.988037,15.083114  C501.986908,13.805413 501.822479,12.527856 501.728180,11.166306  C497.953308,11.166306 494.482269,11.166306 490.190460,11.440119  C490.107513,28.264786 490.024536,45.089451 489.288757,61.784401  M549.158630,11.429179  C549.107178,33.296349 549.047302,55.163517 549.043457,77.030693  C549.043335,77.709923 549.622437,78.389252 550.389099,79.815224  C571.359802,79.876686 592.330444,79.973717 613.301147,79.967209  C617.129944,79.966019 622.419678,73.603004 622.551636,68.837936  C602.469116,68.837936 582.394409,68.837936 562.299133,68.837936  C562.299133,62.388050 562.299133,56.329342 562.299133,49.999149  C577.887573,49.999149 593.181152,49.845642 608.467346,50.114220  C611.997131,50.176239 614.308594,49.201420 616.129822,46.393749  C617.267761,44.639565 618.513550,42.955421 620.367737,40.298836  C600.516052,40.298836 581.402588,40.298836 562.308594,40.298836  C562.308594,33.369637 562.308594,27.309731 562.308594,21.000080  C578.242126,21.000080 593.868469,21.000160 609.494812,21.000044  C616.599731,20.999990 619.782532,18.562235 622.336792,11.165492  C598.219604,11.165492 574.102356,11.165492 549.158630,11.429179  M100.051353,50.221039  C103.356651,59.165306 106.595161,68.135498 110.045975,77.023270  C110.513115,78.226410 111.960091,79.724487 113.100891,79.861992  C116.310570,80.248863 119.597237,79.997040 123.258667,79.997040  C119.351051,68.527344 115.687309,57.711681 111.980247,46.910885  C108.679420,37.293663 105.259010,27.716820 102.038879,18.072906  C100.778442,14.298036 99.532555,10.770882 94.927307,9.989934  C90.015778,9.157047 87.748123,12.100970 85.999298,15.967180  C78.537895,32.462448 71.051590,48.946449 63.229939,66.194084  C55.933155,49.558144 48.977898,33.630905 41.954220,17.733896  C40.059940,13.446493 37.901840,9.628942 32.058475,9.916675  C26.618547,10.184542 26.275568,14.463944 25.004843,17.944874  C18.968554,34.480259 13.022329,51.049042 7.152799,67.644402  C5.783360,71.516319 4.838308,75.538338 3.612069,79.789154  C8.209198,79.789154 11.991708,79.789154 15.426410,79.789154  C21.688097,62.042744 27.845078,44.593086 34.146759,26.733328  C41.727451,43.817768 48.928020,60.397240 56.557201,76.777084  C57.471462,78.740005 60.833199,80.875175 62.847637,80.684258  C65.417244,80.440735 68.925354,78.483452 70.020981,76.270653  C75.386497,65.434029 80.094597,54.271393 85.014420,43.214802  C87.397675,37.858784 89.735626,32.482613 92.416084,26.382795  C95.158081,34.710495 97.577881,42.059654 100.051353,50.221039  M861.706055,72.995583  C869.044861,78.041405 877.439575,79.781883 886.062805,79.918381  C903.388672,80.192650 920.721924,79.999863 938.052124,79.999817  C939.632080,79.999817 941.212036,79.999817 943.606140,79.999817  C942.661255,78.573944 942.357117,77.830887 941.819763,77.346436  C932.033203,68.522408 922.232361,59.713963 912.378784,50.964993  C911.727234,50.386482 910.633545,50.060585 909.737549,50.043716  C904.995422,49.954464 900.250732,50.001812 894.531433,50.001812  C901.811462,56.555637 908.306702,62.402916 915.632812,68.998222  C903.387207,68.998222 892.380371,69.614105 881.488647,68.760574  C875.243042,68.271133 869.100769,66.153320 865.094360,59.826199  C861.403625,53.997467 860.595215,47.992577 861.029602,41.549057  C861.758545,30.736441 867.039795,24.905367 877.065857,22.013714  C887.715210,18.942276 898.591919,19.185003 909.290100,21.165600  C915.926331,22.394196 922.655884,24.485435 925.913696,31.662495  C929.764160,40.145172 930.488831,48.545494 925.351318,56.999279  C928.738831,56.999279 931.750244,56.826771 934.732788,57.046783  C937.844116,57.276291 939.835876,56.467381 940.052063,53.020046  C940.338623,48.450275 941.460876,43.768158 940.805481,39.344467  C939.923767,33.392216 938.722595,27.502392 934.215820,22.494678  C924.391602,11.578451 911.259338,9.890802 898.140381,9.265629  C889.459595,8.851944 880.457581,10.193330 871.957214,12.237101  C861.343201,14.789077 852.739807,21.395523 850.221375,32.385056  C846.796082,47.331394 847.685303,61.859558 861.706055,72.995583  M365.000000,60.471405  C365.000000,63.237789 365.000000,66.004173 365.000000,67.994278  C351.498535,67.994278 338.509613,69.055099 325.795837,67.641426  C316.483704,66.605980 310.670380,59.105824 308.490204,49.886658  C306.701263,42.321827 308.703247,35.379517 313.978058,29.546747  C319.912537,22.984482 327.955750,21.438135 336.135437,21.101934  C346.444702,20.678200 356.784576,21.000010 367.111267,20.999599  C373.476471,20.999346 377.364105,17.841078 379.334808,11.000296  C364.319489,11.000296 349.328430,11.153140 334.342377,10.945261  C324.739594,10.812055 316.321930,13.326835 308.286713,18.827431  C294.391205,28.339724 292.714203,49.458656 299.968933,61.341347  C307.915131,74.356583 320.352325,79.674973 335.147491,79.959831  C345.803345,80.164986 356.466339,79.999947 367.126129,80.000023  C370.375458,80.000038 373.624786,80.000031 376.786804,80.000031  C376.786804,66.327110 376.786804,53.387585 376.786804,40.000027  C364.467712,40.000027 352.325989,40.519974 340.256683,39.809322  C332.751984,39.367432 328.361572,42.147549 325.399872,49.109673  C338.647858,49.109673 351.682251,49.109673 365.000000,49.109673  C365.000000,52.879677 365.000000,56.183899 365.000000,60.471405  M229.002441,25.510382  C226.452454,21.959465 223.745499,18.509449 221.384888,14.836814  C216.324661,6.964116 208.603638,8.945305 204.295074,15.267017  C194.544418,29.573559 184.929672,43.972736 175.260345,58.334698  C170.507050,65.394814 165.755264,72.455963 160.677643,79.999733  C164.863922,79.999733 168.185928,79.860237 171.489975,80.043945  C174.125824,80.190491 175.903015,79.556259 177.450165,77.132019  C181.793076,70.327072 186.490143,63.748791 191.016434,57.060062  C198.301819,46.294090 205.562256,35.511234 213.085922,24.361036  C223.197983,39.529381 232.904602,54.089546 242.844269,68.999313  C229.559753,68.999313 216.901810,68.999275 204.243866,68.999321  C196.220184,68.999344 193.061920,71.373260 190.187363,79.750031  C214.955246,79.750031 239.638351,79.750031 265.186981,79.750031  C259.749390,71.519424 254.632553,63.735737 249.475845,55.978539  C242.837585,45.992641 236.167358,36.027988 229.002441,25.510382  M793.623108,11.000274  C790.269653,10.349723 789.929443,12.157876 789.946228,14.951721  C790.052185,32.584610 790.000000,50.218445 790.000000,67.851967  C790.000000,71.792564 790.000000,75.733162 790.000000,79.715485  C794.253357,79.715485 797.978088,79.715485 801.730103,79.715485  C801.730103,56.728218 801.730103,34.026749 801.730103,11.000155  C799.166565,11.000155 796.869080,11.000155 793.623108,11.000274  z"></path><path fill="#FFC812" opacity="1" stroke="none" d=" M100.024521,49.814926  C97.577881,42.059654 95.158081,34.710495 92.416084,26.382795  C89.735626,32.482613 87.397675,37.858784 85.014420,43.214802  C80.094597,54.271393 75.386497,65.434029 70.020981,76.270653  C68.925354,78.483452 65.417244,80.440735 62.847637,80.684258  C60.833199,80.875175 57.471462,78.740005 56.557201,76.777084  C48.928020,60.397240 41.727451,43.817768 34.146759,26.733328  C27.845078,44.593086 21.688097,62.042744 15.426410,79.789154  C11.991708,79.789154 8.209198,79.789154 3.612069,79.789154  C4.838308,75.538338 5.783360,71.516319 7.152799,67.644402  C13.022329,51.049042 18.968554,34.480259 25.004843,17.944874  C26.275568,14.463944 26.618547,10.184542 32.058475,9.916675  C37.901840,9.628942 40.059940,13.446493 41.954220,17.733896  C48.977898,33.630905 55.933155,49.558144 63.229939,66.194084  C71.051590,48.946449 78.537895,32.462448 85.999298,15.967180  C87.748123,12.100970 90.015778,9.157047 94.927307,9.989934  C99.532555,10.770882 100.778442,14.298036 102.038879,18.072906  C105.259010,27.716820 108.679420,37.293663 111.980247,46.910885  C115.687309,57.711681 119.351051,68.527344 123.258667,79.997040  C119.597237,79.997040 116.310570,80.248863 113.100891,79.861992  C111.960091,79.724487 110.513115,78.226410 110.045975,77.023270  C106.595161,68.135498 103.356651,59.165306 100.024521,49.814926  z"></path><path fill="#FFC812" opacity="1" stroke="none" d=" M861.385620,72.813164  C847.685303,61.859558 846.796082,47.331394 850.221375,32.385056  C852.739807,21.395523 861.343201,14.789077 871.957214,12.237101  C880.457581,10.193330 889.459595,8.851944 898.140381,9.265629  C911.259338,9.890802 924.391602,11.578451 934.215820,22.494678  C938.722595,27.502392 939.923767,33.392216 940.805481,39.344467  C941.460876,43.768158 940.338623,48.450275 940.052063,53.020046  C939.835876,56.467381 937.844116,57.276291 934.732788,57.046783  C931.750244,56.826771 928.738831,56.999279 925.351318,56.999279  C930.488831,48.545494 929.764160,40.145172 925.913696,31.662495  C922.655884,24.485435 915.926331,22.394196 909.290100,21.165600  C898.591919,19.185003 887.715210,18.942276 877.065857,22.013714  C867.039795,24.905367 861.758545,30.736441 861.029602,41.549057  C860.595215,47.992577 861.403625,53.997467 865.094360,59.826199  C869.100769,66.153320 875.243042,68.271133 881.488647,68.760574  C892.380371,69.614105 903.387207,68.998222 915.632812,68.998222  C908.306702,62.402916 901.811462,56.555637 894.531433,50.001812  C900.250732,50.001812 904.995422,49.954464 909.737549,50.043716  C910.633545,50.060585 911.727234,50.386482 912.378784,50.964993  C922.232361,59.713963 932.033203,68.522408 941.819763,77.346436  C942.357117,77.830887 942.661255,78.573944 943.606140,79.999817  C941.212036,79.999817 939.632080,79.999817 938.052124,79.999817  C920.721924,79.999863 903.388672,80.192650 886.062805,79.918381  C877.439575,79.781883 869.044861,78.041405 861.385620,72.813164  z"></path><path fill="#FFC812" opacity="1" stroke="none" d=" M365.000000,59.979763  C365.000000,56.183899 365.000000,52.879677 365.000000,49.109673  C351.682251,49.109673 338.647858,49.109673 325.399872,49.109673  C328.361572,42.147549 332.751984,39.367432 340.256683,39.809322  C352.325989,40.519974 364.467712,40.000027 376.786804,40.000027  C376.786804,53.387585 376.786804,66.327110 376.786804,80.000031  C373.624786,80.000031 370.375458,80.000038 367.126129,80.000023  C356.466339,79.999947 345.803345,80.164986 335.147491,79.959831  C320.352325,79.674973 307.915131,74.356583 299.968933,61.341347  C292.714203,49.458656 294.391205,28.339724 308.286713,18.827431  C316.321930,13.326835 324.739594,10.812055 334.342377,10.945261  C349.328430,11.153140 364.319489,11.000296 379.334808,11.000296  C377.364105,17.841078 373.476471,20.999346 367.111267,20.999599  C356.784576,21.000010 346.444702,20.678200 336.135437,21.101934  C327.955750,21.438135 319.912537,22.984482 313.978058,29.546747  C308.703247,35.379517 306.701263,42.321827 308.490204,49.886658  C310.670380,59.105824 316.483704,66.605980 325.795837,67.641426  C338.509613,69.055099 351.498535,67.994278 365.000000,67.994278  C365.000000,66.004173 365.000000,63.237789 365.000000,59.979763  z"></path><path fill="#FFC812" opacity="1" stroke="none" d=" M549.985168,11.165492  C574.102356,11.165492 598.219604,11.165492 622.336792,11.165140  C619.782532,18.562235 616.599731,20.999990 609.494812,21.000044  C593.868469,21.000160 578.242126,21.000080 562.308594,21.000080  C562.308594,27.309731 562.308594,33.369637 562.308594,40.298836  C581.402588,40.298836 600.516052,40.298836 620.367737,40.298836  C618.513550,42.955421 617.267761,44.639565 616.129822,46.393749  C614.308594,49.201420 611.997131,50.176239 608.467346,50.114220  C593.181152,49.845642 577.887573,49.999149 562.299133,49.999149  C562.299133,56.329342 562.299133,62.388050 562.299133,68.837936  C582.394409,68.837936 602.469116,68.837936 622.551636,68.837936  C622.419678,73.603004 617.129944,79.966019 613.301147,79.967209  C592.330444,79.973717 571.359802,79.876686 550.180420,78.970695  C549.976196,55.805943 549.980652,33.485718 549.985168,11.165492  z"></path><path fill="#FFC912" opacity="1" stroke="none" d=" M229.256668,25.782284  C236.167358,36.027988 242.837585,45.992641 249.475845,55.978539  C254.632553,63.735737 259.749390,71.519424 265.186981,79.750031  C239.638351,79.750031 214.955246,79.750031 190.187363,79.750031  C193.061920,71.373260 196.220184,68.999344 204.243866,68.999321  C216.901810,68.999275 229.559753,68.999313 242.844269,68.999313  C232.904602,54.089546 223.197983,39.529381 213.085922,24.361036  C205.562256,35.511234 198.301819,46.294090 191.016434,57.060062  C186.490143,63.748791 181.793076,70.327072 177.450165,77.132019  C175.903015,79.556259 174.125824,80.190491 171.489975,80.043945  C168.185928,79.860237 164.863922,79.999733 160.677643,79.999733  C165.755264,72.455963 170.507050,65.394814 175.260345,58.334698  C184.929672,43.972736 194.544418,29.573559 204.295074,15.267017  C208.603638,8.945305 216.324661,6.964116 221.384888,14.836814  C223.745499,18.509449 226.452454,21.959465 229.256668,25.782284  z"></path><path fill="#FFC812" opacity="1" stroke="none" d=" M491.011261,11.166306  C494.482269,11.166306 497.953308,11.166306 501.728180,11.166306  C501.822479,12.527856 501.986908,13.805413 501.988037,15.083114  C502.004669,33.915134 502.138489,52.749325 501.846832,71.576843  C501.804077,74.336197 500.419983,78.445442 498.402161,79.477448  C495.485718,80.969055 491.801880,80.439606 488.608185,77.291771  C472.666626,61.579197 456.393494,46.202744 440.201691,30.745087  C439.192078,29.781244 437.881134,29.133095 436.194336,27.987654  C436.194336,45.484337 436.194336,62.366734 436.194336,79.623993  C432.478088,79.623993 429.081146,79.623993 425.240997,79.623993  C425.169678,78.417923 425.012604,76.986786 425.011353,75.555527  C424.994965,56.556847 424.866058,37.556152 425.148499,18.561663  C425.189819,15.782623 426.508484,11.732783 428.523285,10.636374  C430.529938,9.544425 434.182922,11.329514 437.057709,12.071331  C437.925415,12.295238 438.659332,13.191381 439.363037,13.873899  C451.136993,25.292862 462.868835,36.755344 474.672455,48.143456  C479.467804,52.770004 484.412170,57.242054 489.895233,61.826519  C490.667816,60.255089 490.973969,58.641907 490.978210,57.027931  C491.018555,41.740799 491.007507,26.453533 491.011261,11.166306  z"></path><path fill="#FFC812" opacity="1" stroke="none" d=" M695.883118,21.045822  C684.125793,21.045826 672.368469,21.045826 659.936829,21.045826  C662.333069,17.711752 664.123901,14.842332 666.334290,12.344177  C667.135132,11.439161 668.938660,11.058009 670.286438,11.054170  C695.939148,10.981100 721.592224,11.000241 747.782104,11.000241  C745.581421,14.159754 743.806458,17.194344 741.507568,19.759439  C740.637390,20.730436 738.562073,20.931166 737.030029,20.948572  C727.891541,21.052389 718.751282,20.999943 708.999817,20.999943  C708.999817,23.681648 708.999878,26.112732 708.999878,28.543818  C708.999878,43.870018 708.836304,59.199043 709.100952,74.520676  C709.178650,79.020966 707.710754,80.571121 703.391479,80.038528  C701.092163,79.755013 698.744385,79.863792 696.498169,79.028244  C696.708252,77.616669 696.951843,76.972534 696.952881,76.328011  C696.981323,59.128246 697.007446,41.928356 696.944641,24.728809  C696.940125,23.499870 696.252930,22.273424 695.883118,21.045822  z"></path><path fill="#FFC812" opacity="1" stroke="none" d=" M794.097412,11.000215  C796.869080,11.000155 799.166565,11.000155 801.730103,11.000155  C801.730103,34.026749 801.730103,56.728218 801.730103,79.715485  C797.978088,79.715485 794.253357,79.715485 790.000000,79.715485  C790.000000,75.733162 790.000000,71.792564 790.000000,67.851967  C790.000000,50.218445 790.052185,32.584610 789.946228,14.951721  C789.929443,12.157876 790.269653,10.349723 794.097412,11.000215  z"></path><path fill="#FFFF00" opacity="1" stroke="none" d=" M549.571899,11.297336  C549.980652,33.485718 549.976196,55.805943 549.951599,78.597351  C549.622437,78.389252 549.043335,77.709923 549.043457,77.030693  C549.047302,55.163517 549.107178,33.296349 549.571899,11.297336  z"></path><path fill="#FFB917" opacity="1" stroke="none" d=" M695.934326,21.508923  C696.252930,22.273424 696.940125,23.499870 696.944641,24.728809  C697.007446,41.928356 696.981323,59.128246 696.952881,76.328011  C696.951843,76.972534 696.708252,77.616669 696.375732,78.616806  C696.110962,59.972431 696.048218,40.972225 695.934326,21.508923  z"></path><path fill="#FFAA00" opacity="1" stroke="none" d=" M490.600861,11.303212  C491.007507,26.453533 491.018555,41.740799 490.978210,57.027931  C490.973969,58.641907 490.667816,60.255089 490.221649,61.891380  C490.024536,45.089451 490.107513,28.264786 490.600861,11.303212  z"></path></svg>