<svg width="176" height="33" viewBox="0 0 176 33" fill="none" xmlns="http://www.w3.org/2000/svg">
<g clip-path="url(#clip0_21166_16918)">
<path d="M17.1419 17.4888H3.43943V31.7965H17.1419V17.4888Z" fill="#BAE4EE"/>
<path d="M30.8444 3.18091H17.142V17.4886H30.8444V3.18091Z" fill="#B2AFD7"/>
<path d="M30.8444 17.4888H17.142V31.7965H30.8444V17.4888Z" fill="#2EC4EA"/>
<path d="M14.8581 0.796387H1.15567V15.1041H14.8581V0.796387Z" fill="#3B3A97"/>
</g>
<path d="M45.67 21.9584C44.674 21.9584 43.774 21.8324 42.97 21.5804C42.166 21.3164 41.47 20.9384 40.882 20.4464L41.404 19.2584C42.016 19.7264 42.658 20.0744 43.33 20.3024C44.002 20.5304 44.782 20.6444 45.67 20.6444C46.75 20.6444 47.548 20.4464 48.064 20.0504C48.592 19.6424 48.856 19.1084 48.856 18.4484C48.856 17.9204 48.664 17.5004 48.28 17.1884C47.908 16.8764 47.278 16.6304 46.39 16.4504L44.518 16.0724C43.39 15.8324 42.544 15.4424 41.98 14.9024C41.428 14.3504 41.152 13.6184 41.152 12.7064C41.152 11.9504 41.344 11.2904 41.728 10.7264C42.124 10.1624 42.67 9.72439 43.366 9.41239C44.062 9.10039 44.866 8.94439 45.778 8.94439C46.63 8.94439 47.422 9.08239 48.154 9.35839C48.886 9.62239 49.504 10.0064 50.008 10.5104L49.486 11.6624C48.946 11.1704 48.376 10.8164 47.776 10.6004C47.176 10.3724 46.504 10.2584 45.76 10.2584C44.812 10.2584 44.056 10.4804 43.492 10.9244C42.928 11.3564 42.646 11.9324 42.646 12.6524C42.646 13.2284 42.82 13.6844 43.168 14.0204C43.528 14.3564 44.11 14.6024 44.914 14.7584L46.786 15.1544C47.998 15.4064 48.892 15.7904 49.468 16.3064C50.056 16.8104 50.35 17.5004 50.35 18.3764C50.35 19.0844 50.158 19.7084 49.774 20.2484C49.402 20.7884 48.862 21.2084 48.154 21.5084C47.458 21.8084 46.63 21.9584 45.67 21.9584ZM55.9171 21.9584C54.8851 21.9584 54.1111 21.6884 53.5951 21.1484C53.0791 20.5964 52.8211 19.8044 52.8211 18.7724V14.1824H51.1111V13.0484H52.8211V10.3664H54.2791V13.0484H57.0511V14.1824H54.2791V18.6284C54.2791 19.3124 54.4231 19.8344 54.7111 20.1944C54.9991 20.5424 55.4671 20.7164 56.1151 20.7164C56.3071 20.7164 56.4991 20.6924 56.6911 20.6444C56.8831 20.5964 57.0571 20.5484 57.2131 20.5004L57.4651 21.6164C57.3091 21.7004 57.0811 21.7784 56.7811 21.8504C56.4811 21.9224 56.1931 21.9584 55.9171 21.9584ZM58.7 21.7964V13.0484H60.122V14.6144C60.59 13.5584 61.55 12.9764 63.002 12.8684L63.524 12.8144L63.632 14.0744L62.714 14.1824C61.886 14.2544 61.256 14.5184 60.824 14.9744C60.392 15.4184 60.176 16.0304 60.176 16.8104V21.7964H58.7ZM67.8173 21.9584C67.2173 21.9584 66.6773 21.8444 66.1973 21.6164C65.7293 21.3764 65.3573 21.0524 65.0813 20.6444C64.8053 20.2364 64.6673 19.7804 64.6673 19.2764C64.6673 18.6404 64.8293 18.1364 65.1533 17.7644C65.4893 17.3924 66.0353 17.1284 66.7913 16.9724C67.5593 16.8044 68.6033 16.7204 69.9233 16.7204H70.4993V16.1624C70.4993 15.4184 70.3433 14.8844 70.0313 14.5604C69.7313 14.2244 69.2453 14.0564 68.5733 14.0564C68.0453 14.0564 67.5353 14.1344 67.0433 14.2904C66.5513 14.4344 66.0473 14.6744 65.5313 15.0104L65.0273 13.9484C65.4833 13.6244 66.0353 13.3664 66.6833 13.1744C67.3433 12.9824 67.9733 12.8864 68.5733 12.8864C69.7013 12.8864 70.5353 13.1624 71.0753 13.7144C71.6273 14.2664 71.9033 15.1244 71.9033 16.2884V21.7964H70.5353V20.2844C70.3073 20.8004 69.9533 21.2084 69.4733 21.5084C69.0053 21.8084 68.4533 21.9584 67.8173 21.9584ZM68.0513 20.8604C68.7713 20.8604 69.3593 20.6144 69.8153 20.1224C70.2713 19.6184 70.4993 18.9824 70.4993 18.2144V17.6744H69.9413C68.9693 17.6744 68.2013 17.7224 67.6373 17.8184C67.0853 17.9024 66.6953 18.0584 66.4673 18.2864C66.2513 18.5024 66.1433 18.8024 66.1433 19.1864C66.1433 19.6784 66.3113 20.0804 66.6473 20.3924C66.9953 20.7044 67.4633 20.8604 68.0513 20.8604ZM78.1182 21.9584C77.0862 21.9584 76.3122 21.6884 75.7962 21.1484C75.2802 20.5964 75.0222 19.8044 75.0222 18.7724V14.1824H73.3122V13.0484H75.0222V10.3664H76.4802V13.0484H79.2522V14.1824H76.4802V18.6284C76.4802 19.3124 76.6242 19.8344 76.9122 20.1944C77.2002 20.5424 77.6682 20.7164 78.3162 20.7164C78.5082 20.7164 78.7002 20.6924 78.8922 20.6444C79.0842 20.5964 79.2582 20.5484 79.4142 20.5004L79.6662 21.6164C79.5102 21.7004 79.2822 21.7784 78.9822 21.8504C78.6822 21.9224 78.3942 21.9584 78.1182 21.9584ZM84.7553 21.9584C83.3753 21.9584 82.2833 21.5564 81.4793 20.7524C80.6753 19.9364 80.2733 18.8324 80.2733 17.4404C80.2733 16.5404 80.4533 15.7484 80.8133 15.0644C81.1733 14.3684 81.6653 13.8344 82.2893 13.4624C82.9253 13.0784 83.6573 12.8864 84.4853 12.8864C85.6733 12.8864 86.6033 13.2704 87.2753 14.0384C87.9473 14.7944 88.2833 15.8384 88.2833 17.1704V17.7284H81.6953C81.7433 18.7244 82.0313 19.4864 82.5593 20.0144C83.0873 20.5304 83.8193 20.7884 84.7553 20.7884C85.2833 20.7884 85.7873 20.7104 86.2673 20.5544C86.7473 20.3864 87.2033 20.1164 87.6353 19.7444L88.1393 20.7704C87.7433 21.1424 87.2393 21.4364 86.6273 21.6524C86.0153 21.8564 85.3913 21.9584 84.7553 21.9584ZM84.5213 13.9664C83.6933 13.9664 83.0393 14.2244 82.5593 14.7404C82.0793 15.2564 81.7973 15.9344 81.7133 16.7744H87.0233C86.9873 15.8864 86.7533 15.1964 86.3213 14.7044C85.9013 14.2124 85.3013 13.9664 84.5213 13.9664ZM94.2634 25.1984C93.5074 25.1984 92.7934 25.0964 92.1214 24.8924C91.4614 24.7004 90.8734 24.4064 90.3574 24.0104L90.8434 22.9484C91.3834 23.3324 91.9174 23.6084 92.4454 23.7764C92.9854 23.9444 93.5674 24.0284 94.1914 24.0284C95.9194 24.0284 96.7834 23.1404 96.7834 21.3644V19.8164C96.5314 20.3684 96.1354 20.8064 95.5954 21.1304C95.0674 21.4424 94.4614 21.5984 93.7774 21.5984C92.9734 21.5984 92.2774 21.4124 91.6894 21.0404C91.1014 20.6684 90.6454 20.1584 90.3214 19.5104C90.0094 18.8504 89.8534 18.0884 89.8534 17.2244C89.8534 16.3604 90.0094 15.6044 90.3214 14.9564C90.6454 14.2964 91.1014 13.7864 91.6894 13.4264C92.2774 13.0664 92.9734 12.8864 93.7774 12.8864C94.4614 12.8864 95.0674 13.0424 95.5954 13.3544C96.1354 13.6664 96.5314 14.0924 96.7834 14.6324V13.0484H98.2054V21.1664C98.2054 22.5104 97.8694 23.5184 97.1974 24.1904C96.5374 24.8624 95.5594 25.1984 94.2634 25.1984ZM94.0474 20.4104C94.8874 20.4104 95.5534 20.1224 96.0454 19.5464C96.5374 18.9704 96.7834 18.1964 96.7834 17.2244C96.7834 16.2524 96.5374 15.4844 96.0454 14.9204C95.5534 14.3444 94.8874 14.0564 94.0474 14.0564C93.2194 14.0564 92.5594 14.3444 92.0674 14.9204C91.5754 15.4844 91.3294 16.2524 91.3294 17.2244C91.3294 18.1964 91.5754 18.9704 92.0674 19.5464C92.5594 20.1224 93.2194 20.4104 94.0474 20.4104ZM101.948 25.0364L103.442 21.6524L99.7523 13.0484H101.336L104.234 20.1404L107.15 13.0484H108.68L103.478 25.0364H101.948ZM115.874 21.9584C114.626 21.9584 113.558 21.6944 112.67 21.1664C111.782 20.6384 111.098 19.8884 110.618 18.9164C110.15 17.9444 109.916 16.7864 109.916 15.4424C109.916 14.1104 110.15 12.9584 110.618 11.9864C111.098 11.0144 111.782 10.2644 112.67 9.73639C113.558 9.20839 114.626 8.94439 115.874 8.94439C116.75 8.94439 117.554 9.08239 118.286 9.35839C119.03 9.63439 119.66 10.0364 120.176 10.5644L119.6 11.7704C119.048 11.2544 118.472 10.8824 117.872 10.6544C117.284 10.4144 116.63 10.2944 115.91 10.2944C114.482 10.2944 113.39 10.7444 112.634 11.6444C111.878 12.5444 111.5 13.8104 111.5 15.4424C111.5 17.0864 111.878 18.3584 112.634 19.2584C113.39 20.1584 114.482 20.6084 115.91 20.6084C116.63 20.6084 117.284 20.4944 117.872 20.2664C118.472 20.0264 119.048 19.6484 119.6 19.1324L120.176 20.3384C119.66 20.8544 119.03 21.2564 118.286 21.5444C117.554 21.8204 116.75 21.9584 115.874 21.9584ZM125.301 21.9584C124.449 21.9584 123.711 21.7724 123.087 21.4004C122.463 21.0284 121.977 20.5064 121.629 19.8344C121.293 19.1504 121.125 18.3464 121.125 17.4224C121.125 16.4984 121.293 15.7004 121.629 15.0284C121.977 14.3444 122.463 13.8164 123.087 13.4444C123.711 13.0724 124.449 12.8864 125.301 12.8864C126.141 12.8864 126.873 13.0724 127.497 13.4444C128.133 13.8164 128.619 14.3444 128.955 15.0284C129.303 15.7004 129.477 16.4984 129.477 17.4224C129.477 18.3464 129.303 19.1504 128.955 19.8344C128.619 20.5064 128.133 21.0284 127.497 21.4004C126.873 21.7724 126.141 21.9584 125.301 21.9584ZM125.301 20.7884C126.117 20.7884 126.771 20.5004 127.263 19.9244C127.755 19.3364 128.001 18.5024 128.001 17.4224C128.001 16.3304 127.755 15.4964 127.263 14.9204C126.771 14.3444 126.117 14.0564 125.301 14.0564C124.473 14.0564 123.813 14.3444 123.321 14.9204C122.841 15.4964 122.601 16.3304 122.601 17.4224C122.601 18.5024 122.841 19.3364 123.321 19.9244C123.813 20.5004 124.473 20.7884 125.301 20.7884ZM131.667 21.7964V13.0484H133.089V14.5424C133.377 13.9904 133.785 13.5764 134.313 13.3004C134.841 13.0244 135.435 12.8864 136.095 12.8864C138.171 12.8864 139.209 14.0384 139.209 16.3424V21.7964H137.751V16.4324C137.751 15.6164 137.589 15.0224 137.265 14.6504C136.953 14.2664 136.449 14.0744 135.753 14.0744C134.949 14.0744 134.307 14.3264 133.827 14.8304C133.359 15.3224 133.125 15.9824 133.125 16.8104V21.7964H131.667ZM141.897 21.7964V13.0484H143.319V14.5424C143.607 13.9904 144.015 13.5764 144.543 13.3004C145.071 13.0244 145.665 12.8864 146.325 12.8864C148.401 12.8864 149.439 14.0384 149.439 16.3424V21.7964H147.981V16.4324C147.981 15.6164 147.819 15.0224 147.495 14.6504C147.183 14.2664 146.679 14.0744 145.983 14.0744C145.179 14.0744 144.537 14.3264 144.057 14.8304C143.589 15.3224 143.355 15.9824 143.355 16.8104V21.7964H141.897ZM156.07 21.9584C154.69 21.9584 153.598 21.5564 152.794 20.7524C151.99 19.9364 151.588 18.8324 151.588 17.4404C151.588 16.5404 151.768 15.7484 152.128 15.0644C152.488 14.3684 152.98 13.8344 153.604 13.4624C154.24 13.0784 154.972 12.8864 155.8 12.8864C156.988 12.8864 157.918 13.2704 158.59 14.0384C159.262 14.7944 159.598 15.8384 159.598 17.1704V17.7284H153.01C153.058 18.7244 153.346 19.4864 153.874 20.0144C154.402 20.5304 155.134 20.7884 156.07 20.7884C156.598 20.7884 157.102 20.7104 157.582 20.5544C158.062 20.3864 158.518 20.1164 158.95 19.7444L159.454 20.7704C159.058 21.1424 158.554 21.4364 157.942 21.6524C157.33 21.8564 156.706 21.9584 156.07 21.9584ZM155.836 13.9664C155.008 13.9664 154.354 14.2244 153.874 14.7404C153.394 15.2564 153.112 15.9344 153.028 16.7744H158.338C158.302 15.8864 158.068 15.1964 157.636 14.7044C157.216 14.2124 156.616 13.9664 155.836 13.9664ZM165.416 21.9584C164.54 21.9584 163.784 21.7724 163.148 21.4004C162.512 21.0164 162.02 20.4824 161.672 19.7984C161.336 19.1024 161.168 18.2924 161.168 17.3684C161.168 15.9764 161.546 14.8844 162.302 14.0924C163.058 13.2884 164.096 12.8864 165.416 12.8864C165.956 12.8864 166.49 12.9824 167.018 13.1744C167.546 13.3664 167.984 13.6364 168.332 13.9844L167.828 15.0464C167.48 14.7104 167.096 14.4644 166.676 14.3084C166.268 14.1524 165.878 14.0744 165.506 14.0744C164.594 14.0744 163.892 14.3624 163.4 14.9384C162.908 15.5024 162.662 16.3184 162.662 17.3864C162.662 18.4304 162.908 19.2584 163.4 19.8704C163.892 20.4704 164.594 20.7704 165.506 20.7704C165.878 20.7704 166.268 20.6924 166.676 20.5364C167.096 20.3804 167.48 20.1284 167.828 19.7804L168.332 20.8424C167.984 21.1904 167.54 21.4664 167 21.6704C166.472 21.8624 165.944 21.9584 165.416 21.9584ZM173.55 21.9584C172.518 21.9584 171.744 21.6884 171.228 21.1484C170.712 20.5964 170.454 19.8044 170.454 18.7724V14.1824H168.744V13.0484H170.454V10.3664H171.912V13.0484H174.684V14.1824H171.912V18.6284C171.912 19.3124 172.056 19.8344 172.344 20.1944C172.632 20.5424 173.1 20.7164 173.748 20.7164C173.94 20.7164 174.132 20.6924 174.324 20.6444C174.516 20.5964 174.69 20.5484 174.846 20.5004L175.098 21.6164C174.942 21.7004 174.714 21.7784 174.414 21.8504C174.114 21.9224 173.826 21.9584 173.55 21.9584Z" fill="#111128"/>
<defs>
<clipPath id="clip0_21166_16918">
<rect width="29.6887" height="31" fill="white" transform="translate(1.15567 0.796387)"/>
</clipPath>
</defs>
</svg>
